# xmcd
#
# Track frame offsets:
#	150
#	14628
#	28834
#	43487
#	60278
#	74990
#	90923
#	105016
#	120286
#	134177
#	149855
#	163056
#	181492
#	193844
#	207358
#	221321
#	238237
#	253504
#	266810
#	281821
#	301054
#
# Disc length: 4209 seconds
#
# Revision: 0
# Processed by: cddbd v1.5.2PL0 Copyright (c) Steve Scherf et al.
# Submitted via: EZCDAudioConverter 3.1.0.1
#
DISCID=4b106f15
DTITLE=Hott Country Volume 245
DYEAR=2016
DGENRE=country
TTITLE0=Blake Shelton - She's Got A Way With Words
TTITLE1=Tim Hicks - Stompin' Ground
TTITLE2=Dan Davidson - Found
TTITLE3=Thomas Rhett - Vacation
TTITLE4=Dustin Lynch - Seein' Red
TTITLE5=Maren Morris - 80s Mercedes
TTITLE6=Eli Young Band - Saltwater Gospel
TTITLE7=The Last Bandoleros - Where Do You Go
TTITLE8=Meghan Patrick - Grace and Grit
TTITLE9=Mickey Guyton - Heartbreak Song
TTITLE10=Olivia Lane - Make My Own Sunshine
TTITLE11=Autumn Hill - Good Night For Going Nowhere
TTITLE12=Petric - All She Wrote
TTITLE13=Chase Bryant - Room To Breathe
TTITLE14=Craig Morgan - I'll Be Home Soon
TTITLE15=Josh Abbott Band ft. Carly Pearce - Wasn't That Drunk
TTITLE16=Joe Nichols - Undone
TTITLE17=Gord Bamford - Breakfast Beer
TTITLE18=Jojo Mason - Red Dress
TTITLE19=Aaron Watson - Bluebonnets (Julia's Song)
TTITLE20=Florida Georgia Line - H.O.L.Y.
EXTD=
EXTT0=
EXTT1=
EXTT2=
EXTT3=
EXTT4=
EXTT5=
EXTT6=
EXTT7=
EXTT8=
EXTT9=
EXTT10=
EXTT11=
EXTT12=
EXTT13=
EXTT14=
EXTT15=
EXTT16=
EXTT17=
EXTT18=
EXTT19=
EXTT20=
PLAYORDER=
